# AST/ASF file generated using VICON BodyLanguage
# -----------------------------------------------
:version 1.10
:name VICON
:units
  mass 1.0
  length 0.45
  angle deg
:documentation
   .ast/.asf automatically generated from VICON data using
   VICON BodyBuilder and BodyLanguage model FoxedUp or BRILLIANT.MOD
:root
   order TX TY TZ RX RY RZ
   axis XYZ
   position 0 0 0  
   orientation 0 0 0 
:bonedata
  begin
     id 1 
     name lhipjoint
     direction 0.682418 -0.694059 0.22932 
     length 2.25561 
     axis 0 0 0  XYZ
  end
  begin
     id 2 
     name lfemur
     direction 0.34202 -0.939693 0  
     length 6.96448  
     axis 0 0 20  XYZ
    dof rx ry rz
    limits (-160.0 20.0)
           (-70.0 70.0)
           (-60.0 70.0)
  end
  begin
     id 3 
     name ltibia
     direction 0.34202 -0.939693 0   
     length 6.88553   
     axis 0 0 20   XYZ
    dof rx
    limits (-10.0 170.0)
  end
  begin
     id 4 
     name lfoot
     direction 0.0723587 -0.198804 0.977364   
     length 1.88518   
     axis -90 7.62852e-016 20   XYZ
    dof rx rz
    limits (-45.0 90.0)
           (-70.0 20.0)
  end
  begin
     id 5 
     name ltoes
     direction 1.53558e-011 -4.21962e-011 1   
     length 0.952124   
     axis -90 7.62852e-016 20   XYZ
    dof rx
    limits (-90.0 20.0)
  end
  begin
     id 6 
     name rhipjoint
     direction -0.657603 -0.71533 0.236348   
     length 2.18854  
     axis 0 0 0  XYZ 
  end
  begin
     id 7 
     name rfemur
     direction -0.34202 -0.939693 0   
     length 6.86686   
     axis 0 0 -20   XYZ
    dof rx ry rz
    limits (-160.0 20.0)
           (-70.0 70.0)
           (-70.0 60.0)
  end
  begin
     id 8 
     name rtibia
     direction -0.34202 -0.939693 0   
     length 6.59503   
     axis 0 0 -20   XYZ
    dof rx
    limits (-10.0 170.0)
 end
 begin
     id 9 
     name rfoot
     direction -0.101977 -0.280179 0.954516   
     length 1.93723  
     axis -90 -7.62852e-016 -20   XYZ
    dof rx rz
    limits (-45.0 90.0)
           (-20.0 70.0)
  end
  begin
     id 10 
     name rtoes
     direction -1.53564e-011 -4.21897e-011 1   
     length 0.970315   
     axis -90 -7.62852e-016 -20   XYZ
    dof rx
    limits (-90.0 20.0)
  end
  begin
     id 11 
     name lowerback
     direction -0.0339559 0.999421 -0.00235966   
     length 1.88543   
     axis 0 0 0   XYZ
    dof rx ry rz
    limits (-20.0 45.0)
           (-30.0 30.0)
           (-30.0 30.0)
  end
  begin
     id 12 
     name upperback
     direction 0.00401003 0.999739 0.0224689   
     length 1.8856   
     axis 0 0 0   XYZ
    dof rx ry rz
    limits (-20.0 45.0)
           (-30.0 30.0)
           (-30.0 30.0)
  end
  begin
     id 13 
     name thorax
     direction 0.0198619 0.999546 0.0226536   
     length 1.88352   
     axis 0 0 0   XYZ
    dof rx ry rz
    limits (-20.0 45.0)
           (-30.0 30.0)
           (-30.0 30.0)
  end
  begin
     id 14 
     name lowerneck
     direction -0.0461848 0.998632 0.0245198   
     length 1.34895   
     axis 0 0 0   XYZ
    dof rx ry rz
    limits (-20.0 45.0)
           (-30.0 30.0)
           (-30.0 30.0)
  end
  begin
     id 15 
     name upperneck
     direction -0.0180627 0.994724 -0.100984   
     length 1.35214   
     axis 0 0 0   XYZ
    dof rx ry rz
    limits (-20.0 45.0)
           (-30.0 30.0)
           (-30.0 30.0)
  end
  begin
     id 16
     name head
     direction -0.00374772 0.999293 -0.037403  
     length 1.3568  
     axis 0 0 0   XYZ
    dof rx ry rz
    limits (-20.0 45.0)
           (-30.0 30.0)
           (-30.0 30.0)
  end
  begin
     id 17 
     name lclavicle
     direction 0.971773 0.191119 0.138311  
     length 2.84954  
     axis 0 0 0   XYZ
    dof ry rz
    limits (-20.0 10.0)
           (0.0 20.0)
  end
  begin
     id 18 
     name lhumerus
     direction 1 -4.4897e-011 -2.43761e-027   
     length 4.40919   
     axis 180 -30 -90   XYZ
    dof rx ry rz
    limits (-60.0 90.0)
           (-90.0 90.0)
           (-90.0 90.0)
  end
  begin
     id 19
     name lradius
     direction 1 -4.4896e-011 -9.1621e-027   
     length 3.03857   
     axis 180 -30 -90   XYZ
    dof rx
    limits (-10.0 170.0)
  end
  begin
     id 20
     name lwrist
     direction 1 -4.4896e-011 -1.41363e-026   
     length 1.51928   
     axis 1.07133e-014 90 90   XYZ
    dof ry
    limits (-180.0 0.0)
 end
  begin
     id 21 
     name lhand
     direction 1 -4.48978e-011 -2.82725e-026   
     length 0.523208   
     axis 1.80403e-014 90 90   XYZ
    dof rx rz
    limits (-90.0 90.0)
           (-45.0 45.0)
  end
  begin
     id 22 
     name lfingers
     direction 1 -4.48977e-011 -5.6545e-026   
     length 0.421824   
     axis 3.60806e-014 90 90   XYZ
    dof rx
    limits (0.0 90.0)
  end
  begin
     id 23
     name lthumb
     direction 0.707107 -6.34962e-011 0.707107   
     length 0.605657   
     axis -90 45 2.85299e-015   XYZ
    dof rx rz
    limits (-45.0 45.0)
           (-45.0 45.0)
  end
  begin
     id 24 
     name rclavicle
     direction -0.957247 0.24311 0.156766   
     length 3.12406  
     axis 0 0 0   XYZ 
    dof ry rz
    limits (-10.0 20.0)
           (-20.0 0.0)
  end
  begin
     id 25 
     name rhumerus
     direction -1 -4.48964e-011 -1.70632e-027  
     length 4.61969   
     axis 180 30 90   XYZ
    dof rx ry rz
    limits (-90.0 60.0)
           (-90.0 90.0)
           (-90.0 90.0)
  end
  begin
     id 26 
     name rradius
     direction -1 -4.48966e-011 -6.60395e-027   
     length 3.09382   
     axis 180 30 90   XYZ
    dof rx
    limits (-10.0 170.0)
  end
  begin
     id 27 
     name rwrist
     direction -1 -4.48963e-011 -1.41363e-026   
     length 1.54691   
     axis 1.07133e-014 -90 -90   XYZ
    dof ry
    limits (-180.0 0.0)
  end
  begin
     id 28
     name rhand
     direction -1 -4.49013e-011 -2.82725e-026   
     length 0.500896   
     axis 1.80403e-014 -90 -90   XYZ
    dof rx rz
    limits (-90.0 90.0)
           (-45.0 45.0)
  end
  begin
     id 29
     name rfingers
     direction -1 -4.48902e-011 -5.6545e-026   
     length 0.403835   
     axis 3.60806e-014 -90 -90   XYZ
    dof rx
    limits (0.0 90.0)
  end
  begin
     id 30
     name rthumb
     direction -0.707107 -6.34953e-011 0.707107   
     length 0.579829   
     axis -90 -45 -2.85299e-015   XYZ
    dof rx rz
    limits (-45.0 45.0)
           (-45.0 45.0)
  end
:hierarchy
  begin
    root lhipjoint rhipjoint lowerback
    lhipjoint lfemur
    lfemur ltibia
    ltibia lfoot
    lfoot ltoes
    rhipjoint rfemur
    rfemur rtibia
    rtibia rfoot
    rfoot rtoes
    lowerback upperback
    upperback thorax
    thorax lowerneck lclavicle rclavicle
    lowerneck upperneck
    upperneck head
    lclavicle lhumerus
    lhumerus lradius
    lradius lwrist
    lwrist lhand lthumb
    lhand lfingers
    rclavicle rhumerus
    rhumerus rradius
    rradius rwrist
    rwrist rhand rthumb
    rhand rfingers
  end

#!OML:ASF E:\madness\Project 1\Capture day 1\Session 1\Female1.ASF
:FULLY-SPECIFIED
:DEGREES
17
root 1.57948 16.3314 -0.185484 -164.816 -79.261 172.118
lowerback -3.80405 0.304941 -3.10305
upperback -5.53516 0.298639 0.606109
thorax -3.60258 0.211741 2.36989
lowerneck 1.01449 -3.05297 -2.63814
upperneck 10.556 -3.99679 -3.48521
head 3.18468 -2.30718 -0.779537
rclavicle 1.4064e-014 4.17448e-015
rhumerus -44.8836 3.49718 -92.0523
rradius 31.0746
rwrist 6.99578
rhand -9.26986 -50.7381
rfingers 7.12502
rthumb 16.6867 -80.0408
lclavicle 1.4064e-014 4.17448e-015
lhumerus -46.0978 15.1142 82.4357
lradius 31.6093
lwrist -20.0041
lhand -19.5005 -18.7379
lfingers 7.12502
lthumb 6.82199 11.1322
rfemur -7.03422 19.7512 10.6676
rtibia 6.87988
rfoot -10.1611 -18.1773
rtoes 10.3234
lfemur -4.45169 -30.1134 -20.7601
ltibia 13.2076
lfoot -9.94435 42.3332
ltoes 22.7308
18
root 1.58138 16.3342 -0.188244 -165.043 -79.216 172.356
lowerback -3.72735 0.309375 -3.00098
upperback -5.53194 0.302361 0.624768
thorax -3.6413 0.211076 2.33162
lowerneck 1.16061 -2.9609 -2.71377
upperneck 10.4176 -3.87968 -3.49984
head 3.1118 -2.24838 -0.762456
rclavicle 1.14053e-014 -1.39149e-015
rhumerus -45.0879 3.36777 -91.9496
rradius 31.4947
rwrist 7.33198
rhand -9.2753 -50.7225
rfingers 7.12502
rthumb 16.6814 -80.0257
lclavicle 1.14053e-014 -1.39149e-015
lhumerus -46.1019 15.119 82.4406
lradius 31.5251
lwrist -19.9099
lhand -19.8036 -18.6521
lfingers 7.12502
lthumb 6.52938 11.2273
rfemur -7.21994 19.8038 10.6898
rtibia 7.1528
rfoot -10.2431 -18.1887
rtoes 10.2754
lfemur -4.48193 -30.1691 -20.6961
ltibia 13.2089
lfoot -10.1416 42.3715
ltoes 22.9717
19
root 1.58099 16.3331 -0.19124 -164.627 -79.1582 171.997
lowerback -3.8231 0.305976 -3.01175
upperback -5.44535 0.304752 0.605663
thorax -3.49696 0.210234 2.31821
lowerneck 0.981504 -2.92305 -2.74925
upperneck 10.4026 -3.81259 -3.56154
head 3.1399 -2.21818 -0.778345
rclavicle -1.00635e-014 -4.57205e-015
rhumerus -45.0732 3.45098 -91.9799
rradius 31.8088
rwrist 7.26139
rhand -9.14784 -50.7739
rfingers 7.12502
rthumb 16.8041 -80.0668
lclavicle -1.00635e-014 -4.57205e-015
lhumerus -46.1176 14.9774 82.5393
lradius 31.8096
lwrist -19.7429
lhand -19.9091 -18.4125
lfingers 7.12502
lthumb 6.4276 11.47
rfemur -7.47356 19.8274 10.5584
rtibia 7.46081
rfoot -10.3741 -18.1774
rtoes 10.1321
lfemur -4.55509 -30.4676 -20.7308
ltibia 13.2124
lfoot -10.6288 42.6036
ltoes 23.6801
20
root 1.58152 16.329 -0.194636 -164.009 -79.126 171.435
lowerback -3.95638 0.307197 -3.0737
upperback -5.25218 0.321402 0.576929
thorax -3.22183 0.216794 2.32387
lowerneck 0.453352 -2.89899 -2.75502
upperneck 10.4289 -3.75115 -3.49351
head 3.24948 -2.18528 -0.765646
rclavicle -1.73688e-014 -9.93923e-016
rhumerus -44.746 3.45559 -91.9629
rradius 31.9324
rwrist 7.07993
rhand -9.13511 -50.6541
rfingers 7.12502
rthumb 16.8164 -79.9459
lclavicle -1.73688e-014 -9.93923e-016
lhumerus -45.9391 14.8849 82.6801
lradius 32.1359
lwrist -19.6727
lhand -20.0144 -18.1919
lfingers 7.12502
lthumb 6.32587 11.6936
rfemur -7.74192 19.8145 10.3947
rtibia 7.80623
rfoot -10.5083 -18.1386
rtoes 9.90803
lfemur -4.61279 -30.5779 -20.8223
ltibia 13.2285
lfoot -10.5179 42.7482
ltoes 23.2945
21
root 1.58179 16.3278 -0.198623 -163.923 -79.1434 171.363
lowerback -4.00416 0.325393 -2.99964
upperback -5.07559 0.355617 0.544109
thorax -3.01155 0.228557 2.24902
lowerneck 0.0847474 -2.89806 -2.74161
upperneck 10.4064 -3.73585 -3.36445
head 3.31329 -2.17032 -0.732955
rclavicle 9.59136e-015 1.59028e-015
rhumerus -44.4581 3.2826 -91.8823
rradius 32.0208
rwrist 7.10528
rhand -9.25382 -50.6433
rfingers 7.12502
rthumb 16.7021 -79.9448
lclavicle 9.59136e-015 1.59028e-015
lhumerus -45.5533 14.8418 82.7334
lradius 32.035
lwrist -19.7156
lhand -20.2326 -18.1442
lfingers 7.12502
lthumb 6.11523 11.7475
rfemur -8.01888 19.7917 10.3815
rtibia 8.32024
rfoot -10.7182 -18.0968
rtoes 9.99805
lfemur -4.62538 -30.3849 -20.8214
ltibia 13.2273
lfoot -10.0844 42.6712
ltoes 22.3713
22
root 1.58269 16.3286 -0.203738 -163.891 -79.151 171.296
lowerback -3.95135 0.321806 -2.95025
upperback -4.94409 0.356002 0.509798
thorax -2.90308 0.225999 2.18568
lowerneck -0.183994 -2.82874 -2.59063
upperneck 10.4042 -3.6296 -3.36457
head 3.3604 -2.11099 -0.761225
rclavicle 1.15295e-014 -1.23246e-014
rhumerus -44.231 3.25697 -91.8825
rradius 32.0466
rwrist 7.1416
rhand -9.35269 -50.6217
rfingers 7.12502
rthumb 16.6069 -79.9311
lclavicle 1.15295e-014 -1.23246e-014
lhumerus -45.2492 14.9162 82.6682
lradius 31.8964
lwrist -19.7713
lhand -20.4126 -18.1853
lfingers 7.12502
lthumb 5.94147 11.7114
rfemur -8.22066 19.7873 10.388
rtibia 8.78736
rfoot -10.9139 -18.0754
rtoes 10.084
lfemur -4.62282 -30.4518 -20.8172
ltibia 13.2573
lfoot -10.2728 42.7352
ltoes 22.7028
